<?xml version="1.0" encoding="UTF-8" standalone="no"?>
<!DOCTYPE svg PUBLIC "-//W3C//DTD SVG 1.1//EN" "http://www.w3.org/Graphics/SVG/1.1/DTD/svg11.dtd">
<svg width="100%" height="100%" viewBox="0 0 332 332" version="1.1" xmlns="http://www.w3.org/2000/svg" xmlns:xlink="http://www.w3.org/1999/xlink" xml:space="preserve" xmlns:serif="http://www.serif.com/" style="fill-rule:evenodd;clip-rule:evenodd;stroke-linejoin:round;stroke-miterlimit:2;">
    <g id="Layer_2">
        <g id="moons">
            <path d="M50.12,222.64C47.666,217.647 45.542,212.5 43.76,207.23C43.643,206.872 43.283,206.648 42.91,206.7L41.53,206.84C41.109,206.878 40.783,207.234 40.783,207.657C40.783,207.739 40.796,207.821 40.82,207.9C42.702,213.49 44.953,218.949 47.56,224.24C47.698,224.512 47.978,224.685 48.283,224.685C48.476,224.685 48.663,224.616 48.81,224.49L49.89,223.61C50.189,223.385 50.286,222.975 50.12,222.64Z" style="fill:rgb(26,32,44);fill-rule:nonzero;"/>
            <path d="M207.23,43.76C212.491,45.543 217.632,47.664 222.62,50.11C222.961,50.291 223.387,50.197 223.62,49.89C223.9,49.52 224.19,49.16 224.49,48.8C224.616,48.655 224.685,48.469 224.685,48.277C224.685,47.973 224.512,47.695 224.24,47.56C218.958,44.947 213.506,42.696 207.92,40.82C207.841,40.796 207.759,40.783 207.677,40.783C207.254,40.783 206.898,41.109 206.86,41.53C206.86,41.99 206.77,42.46 206.72,42.91C206.665,43.277 206.88,43.635 207.23,43.76Z" style="fill:rgb(26,32,44);fill-rule:nonzero;"/>
            <path d="M281.26,108.1C283.961,113.453 286.28,118.99 288.2,124.67C288.322,125.015 288.666,125.235 289.03,125.2C289.49,125.2 289.96,125.12 290.42,125.09C290.849,125.069 291.19,124.71 291.19,124.281C291.19,124.196 291.176,124.111 291.15,124.03C289.124,118.011 286.668,112.146 283.8,106.48C283.661,106.211 283.383,106.042 283.081,106.042C282.886,106.042 282.697,106.112 282.55,106.24C282.2,106.54 281.84,106.83 281.48,107.12C281.183,107.351 281.09,107.764 281.26,108.1Z" style="fill:rgb(26,32,44);fill-rule:nonzero;"/>
            <path d="M108.73,50.43C113.907,47.849 119.252,45.62 124.73,43.76C125.088,43.643 125.312,43.283 125.26,42.91C125.26,42.46 125.16,41.99 125.12,41.53C125.084,41.113 124.731,40.789 124.313,40.789C124.227,40.789 124.142,40.803 124.06,40.83C118.235,42.779 112.554,45.135 107.06,47.88C106.792,48.016 106.622,48.293 106.622,48.593C106.622,48.787 106.692,48.974 106.82,49.12C107.12,49.48 107.41,49.84 107.7,50.21C107.93,50.542 108.384,50.638 108.73,50.43Z" style="fill:rgb(26,32,44);fill-rule:nonzero;"/>
            <path d="M288.2,207.33C286.427,212.565 284.316,217.679 281.88,222.64C281.697,222.982 281.795,223.412 282.11,223.64L283.19,224.52C283.337,224.646 283.524,224.715 283.717,224.715C284.022,224.715 284.302,224.542 284.44,224.27C287.037,219.002 289.278,213.567 291.15,208C291.179,207.916 291.194,207.828 291.194,207.74C291.194,207.311 290.849,206.954 290.42,206.94C289.96,206.94 289.49,206.88 289.03,206.83C288.673,206.791 288.332,206.997 288.2,207.33Z" style="fill:rgb(26,32,44);fill-rule:nonzero;"/>
            <path d="M43.76,124.77C45.62,119.292 47.848,113.947 50.43,108.77C50.607,108.429 50.514,108.006 50.21,107.77L49.12,106.89C48.973,106.762 48.784,106.692 48.589,106.692C48.287,106.692 48.009,106.861 47.87,107.13C45.146,112.628 42.807,118.308 40.87,124.13C40.843,124.212 40.829,124.297 40.829,124.383C40.829,124.801 41.153,125.154 41.57,125.19L42.95,125.33C43.317,125.359 43.657,125.124 43.76,124.77Z" style="fill:rgb(26,32,44);fill-rule:nonzero;"/>
            <path d="M223.92,281.25C218.526,283.969 212.95,286.308 207.23,288.25C206.872,288.367 206.648,288.727 206.7,289.1C206.75,289.55 206.8,290.02 206.84,290.48C206.876,290.897 207.229,291.221 207.647,291.221C207.733,291.221 207.818,291.207 207.9,291.18C213.952,289.153 219.848,286.686 225.54,283.8C225.809,283.661 225.978,283.383 225.978,283.081C225.978,282.886 225.908,282.697 225.78,282.55C225.48,282.2 225.19,281.84 224.9,281.48C224.672,281.179 224.258,281.082 223.92,281.25Z" style="fill:rgb(26,32,44);fill-rule:nonzero;"/>
            <path d="M124.77,288.24C119.05,286.298 113.474,283.959 108.08,281.24C107.739,281.059 107.313,281.153 107.08,281.46C106.79,281.82 106.5,282.18 106.2,282.53C106.072,282.677 106.002,282.866 106.002,283.061C106.002,283.363 106.171,283.641 106.44,283.78C112.132,286.666 118.028,289.133 124.08,291.16C124.162,291.187 124.247,291.201 124.333,291.201C124.751,291.201 125.104,290.877 125.14,290.46C125.14,290 125.23,289.53 125.28,289.08C125.33,288.716 125.116,288.364 124.77,288.24Z" style="fill:rgb(26,32,44);fill-rule:nonzero;"/>
            <circle cx="166" cy="38" r="38" style="fill:rgb(26,32,44);"/>
            <path d="M293,128C272.154,128 255,145.154 255,166C255,186.846 272.154,204 293,204C313.846,204 331,186.846 331,166C331,145.154 313.846,128 293,128ZM293,200L293,132C311.652,132 327,147.348 327,166C327,184.652 311.652,200 293,200Z" style="fill:rgb(26,32,44);fill-rule:nonzero;"/>
            <path d="M262,222C241.154,222 224,239.154 224,260C224,280.846 241.154,298 262,298C282.846,298 300,280.846 300,260C300,239.154 282.846,222 262,222ZM269,293.28C253.304,289.997 241.96,276.035 241.96,260C241.96,243.965 253.304,230.003 269,226.72C284.696,230.003 296.04,243.965 296.04,260C296.04,276.035 284.696,289.997 269,293.28Z" style="fill:rgb(26,32,44);fill-rule:nonzero;"/>
            <path d="M70,222C49.154,222 32,239.154 32,260C32,280.846 49.154,298 70,298C90.846,298 108,280.846 108,260C108,239.154 90.846,222 70,222ZM63,293.28C47.304,289.997 35.96,276.035 35.96,260C35.96,243.965 47.304,230.003 63,226.72C78.696,230.003 90.04,243.965 90.04,260C90.04,276.035 78.696,289.997 63,293.28Z" style="fill:rgb(26,32,44);fill-rule:nonzero;"/>
            <path d="M166,256C145.154,256 128,273.154 128,294C128,314.846 145.154,332 166,332C186.846,332 204,314.846 204,294C204,273.154 186.846,256 166,256ZM166,328C147.348,328 132,312.652 132,294C132,275.348 147.348,260 166,260C184.652,260 200,275.348 200,294C200,312.652 184.652,328 166,328Z" style="fill:rgb(26,32,44);fill-rule:nonzero;"/>
            <path d="M38,128C17.154,128 -0,145.154 0,166C0,186.846 17.154,204 38,204C58.846,204 76,186.846 76,166C76,145.154 58.846,128 38,128ZM38,200C19.348,200 4,184.652 4,166C4,147.348 19.348,132 38,132L38,200Z" style="fill:rgb(26,32,44);fill-rule:nonzero;"/>
            <path d="M282.87,48.13C275.746,41.006 266.074,37 256,37C235.154,37 218,54.154 218,75C218,95.846 235.154,113 256,113C266.074,113 275.746,108.994 282.87,101.87C290.058,94.781 294.109,85.096 294.109,75C294.109,64.904 290.058,55.219 282.87,48.13ZM280.43,97.6C273.809,104.239 264.637,107.71 255.28,107.12C267.362,100.994 275.004,88.546 275,75C275.102,71.75 274.663,68.506 273.7,65.4C270.813,54.968 263.383,46.369 253.48,42C254.768,41.846 256.064,41.769 257.36,41.769C275.294,41.769 290.05,56.526 290.05,74.459C290.05,83.123 286.606,91.442 280.48,97.57L280.43,97.6Z" style="fill:rgb(26,32,44);fill-rule:nonzero;"/>
            <path d="M101.87,48.13C94.746,41.006 85.074,37 75,37C54.154,37 37,54.154 37,75C37,95.846 54.154,113 75,113C85.074,113 94.746,108.994 101.87,101.87C109.058,94.781 113.109,85.096 113.109,75C113.109,64.904 109.058,55.219 101.87,48.13ZM75.72,107.13C75.117,107.163 74.514,107.18 73.911,107.18C55.977,107.18 41.221,92.423 41.221,74.49C41.221,56.557 55.977,41.8 73.911,41.8C75.116,41.8 76.321,41.867 77.52,42C67.622,46.365 60.192,54.956 57.3,65.38C56.335,68.492 55.895,71.743 56,75C55.996,88.546 63.638,100.994 75.72,107.12L75.72,107.13Z" style="fill:rgb(26,32,44);fill-rule:nonzero;"/>
            <path d="M106.28,163.94L106.28,120.94L117.85,120.94L117.85,153.85L127.49,153.85L127.49,163.97L106.28,163.94Z" style="fill:rgb(26,32,44);fill-rule:nonzero;"/>
            <path d="M151.31,163.94L150.14,156.09L142.14,156.09L141,163.94L130,163.94L138.74,120.94L153.61,120.94L162.36,163.94L151.31,163.94ZM146.15,131.45L143.74,146.52L148.49,146.52L146.15,131.45Z" style="fill:rgb(26,32,44);fill-rule:nonzero;"/>
            <path d="M182.78,163.94L178.3,151.07L177.2,151.21L177.2,163.94L165.63,163.94L165.63,120.94L180.78,120.94C189.11,120.94 193.52,126.31 193.52,135.13C193.52,141.25 191.79,145.45 188.42,147.73L195,163.94L182.78,163.94ZM178.85,142.05C180.85,141.77 181.85,140.26 181.85,136.05C181.85,131.84 180.61,130.47 178.48,130.47L177.2,130.47L177.2,142.25L178.85,142.05Z" style="fill:rgb(26,32,44);fill-rule:nonzero;"/>
            <path d="M198.54,163.94L198.54,120.94L212.66,120.94C221.75,120.94 226.5,126.59 226.5,136.23C226.5,146.97 221.5,152.41 211.97,152.41L210.11,152.41L210.11,163.97L198.54,163.94ZM211.21,143.22C213.62,143.15 214.79,141.64 214.79,136.61C214.79,131.86 213.55,130.48 211.35,130.48L210.11,130.48L210.11,143.22L211.21,143.22Z" style="fill:rgb(26,32,44);fill-rule:nonzero;"/>
            <path d="M106.42,194.64C104.648,195.844 102.562,196.505 100.42,196.54C94.68,196.54 90.68,193.28 90.68,183.03C90.68,173.45 94.56,169.57 100.38,169.57C102.507,169.58 104.588,170.194 106.38,171.34L104.61,177.25C103.719,176.341 102.529,175.783 101.26,175.68C98.91,175.68 97.75,177.68 97.75,182.91C97.75,188.32 98.91,190.42 101.22,190.42C102.519,190.372 103.756,189.844 104.69,188.94L106.42,194.64Z" style="fill:rgb(26,32,44);fill-rule:nonzero;"/>
            <path d="M120.47,196L119.77,191.29L115,191.29L114.3,196L107.69,196L112.94,170.18L121.86,170.18L127.08,196L120.47,196ZM117.37,176.5L115.92,185.5L118.77,185.5L117.37,176.5Z" style="fill:rgb(26,32,44);fill-rule:nonzero;"/>
            <path d="M129.06,196L129.06,170.14L136,170.14L136,189.89L141.78,189.89L141.78,196L129.06,196Z" style="fill:rgb(26,32,44);fill-rule:nonzero;"/>
            <path d="M144,196L144,170.14L157.3,170.14L157.3,175.89L150.81,175.89L150.81,180.1L155.52,180.1L155.52,185.84L150.81,185.84L150.81,190.22L157.3,190.22L157.3,196L144,196Z" style="fill:rgb(26,32,44);fill-rule:nonzero;"/>
            <path d="M170.54,196.12L166.41,183.69L166.41,196L160,196L160,170.14L167.11,170.14L170.91,181.63L170.91,170.14L177.35,170.14L177.35,196.14L170.54,196.12Z" style="fill:rgb(26,32,44);fill-rule:nonzero;"/>
            <path d="M180.45,170.14L188.05,170.14C194.75,170.14 197.72,174.61 197.72,182.87C197.72,191.42 194.5,195.96 187.56,195.96L180.45,195.96L180.45,170.14ZM187.81,190.22C190,190.22 190.61,188.48 190.61,183.11C190.61,177.74 190.08,175.89 187.76,175.89L187.39,175.89L187.39,190.22L187.81,190.22Z" style="fill:rgb(26,32,44);fill-rule:nonzero;"/>
            <path d="M211,196L210.3,191.29L205.51,191.29L204.81,196L198.2,196L203.44,170.18L212.36,170.18L217.59,196L211,196ZM207.9,176.5L206.46,185.5L209.31,185.5L207.9,176.5Z" style="fill:rgb(26,32,44);fill-rule:nonzero;"/>
            <path d="M229.86,196L227.18,188.28L226.51,188.36L226.51,196L219.58,196L219.58,170.14L228.66,170.14C233.66,170.14 236.3,173.37 236.3,178.65C236.3,182.33 235.3,184.85 233.25,186.21L237.17,195.96L229.86,196ZM227.51,182.87C228.7,182.7 229.28,181.79 229.28,179.27C229.28,176.75 228.54,175.93 227.28,175.93L226.53,175.93L226.53,183L227.51,182.87Z" style="fill:rgb(26,32,44);fill-rule:nonzero;"/>
            <path d="M106,2.06L108.91,11L118.31,11L110.7,16.53L113.61,25.47L106,19.94L98.39,25.47L101.3,16.53L93.69,11L103.09,11L106,2.06Z" style="fill:rgb(26,32,44);fill-rule:nonzero;"/>
            <path d="M310,215.06L312.91,224L322.31,224L314.7,229.53L317.61,238.47L310,232.94L302.39,238.47L305.3,229.53L297.69,224L307.09,224L310,215.06Z" style="fill:rgb(26,32,44);fill-rule:nonzero;"/>
        </g>
    </g>
</svg>
