<svg xmlns="http://www.w3.org/2000/svg" viewBox="0 0 76 76"><defs><style>.cls-1{fill:#fff;}</style></defs><g id="Layer_2" data-name="Layer 2"><g id="moons"><path class="cls-1" d="M64.88,11.13A38,38,0,0,0,11.12,64.87,38,38,0,1,0,64.88,11.13ZM14.41,25.32h7V45.11h5.8V51.2H14.41Zm48,35.28a32.7,32.7,0,0,1-39.82,5A29,29,0,1,0,24.83,8.17,32.7,32.7,0,0,1,62.44,60.6Zm-23.79-15a5.3,5.3,0,0,0,3.48-1.49l1.69,5.72a10.94,10.94,0,0,1-6,1.9c-5.76,0-9.77-3.27-9.77-13.54,0-9.61,3.89-13.5,9.73-13.5a11.2,11.2,0,0,1,6,1.78L42,32.44a5.27,5.27,0,0,0-3.35-1.57c-2.36,0-3.52,2-3.52,7.24C35.17,43.54,36.33,45.65,38.65,45.65Z"/></g></g></svg>